# xmcd
#
# Track frame offsets: 
#        150
#        18733
#        40301
#        61059
#        81230
#        99890
#        123863
#        134690
#        149853
#        166603
#        192385
#        210535
#        227671
#        250396
#        265181
#        279893
#        294310
#        313825
#        335476
#
# Disc length: 4739 seconds
#
# Revision: 0
# Processed by: cddbd v1.5.2PL0 Copyright (c) Steve Scherf et al.
# Submitted via: ExactAudioCopy v0.99pb5
#
DISCID=19128113
DTITLE=Various Artist - Faves - Disc 3
DYEAR=1900
DGENRE=Acid Punk
TTITLE0=Richard Thompson - I Misunderstood
TTITLE1=Indigo Girls - Romeo And Juliet
TTITLE2=Neil Young - Dreamin' Man
TTITLE3=R.E.M. - Losing My Religion
TTITLE4=Rufus Wainwright - Hallelujah
TTITLE5=Santana - Black Magic Woman\\Gypsy Queen
TTITLE6=Violent Femmes - Blister in the Sun
TTITLE7=Cowboy Junkies - A Common Disaster
TTITLE8=10,000 Maniacs - Because The Night
TTITLE9=Cathedrals - And They Were Chanting
TTITLE10=Jimi Hendrix - All Along the Watchtower
TTITLE11=Suzanne Vega and D.N.A. - Tom's Diner
TTITLE12=Swing Kids - Sing, Sing, Sing
TTITLE13=The Killers - Somebody Told Me
TTITLE14=Morphine - Cure For Pain
TTITLE15=The Smiths - Ask
TTITLE16=Peter Gabriel - Solsbury Hill
TTITLE17=Bruce Springsteen - Thunder Road
TTITLE18=Stevie Wonder - Superstition
EXTD=
EXTT0=
EXTT1=
EXTT2=
EXTT3=
EXTT4=
EXTT5=
EXTT6=
EXTT7=
EXTT8=
EXTT9=
EXTT10=
EXTT11=
EXTT12=
EXTT13=
EXTT14=
EXTT15=
EXTT16=
EXTT17=
EXTT18=
PLAYORDER=
